GREETZ: UnDeaD - BadGirl2k9 - virusofsaten - foxyb - WICCYWOLF - lizzymwah1

VISIT http://www.seedboxworld.biz/ for all ur seedbox needs!

RELEASE NAME: The Expendables TS XViD - SDTeam
RELEASED BY: UnDeaD & BadGirl2k9
SIZE: 386 MB

LANGUAGE: English
IMDb: http://www.imdb.com/title/tt1320253/

PLOT: Barney Ross leads the "Expendables", a band of highly 
skilled mercenaries including knife enthusiast Lee Christmas, 
martial arts expert Yin Yang, heavy weapons specialist Hale Caesar, 
demolitionist Toll Road and loose-cannon sniper Gunner Jensen. 
When the group is commissioned by the mysterious Mr. Church to 
assassinate the merciless dictator of a small South American island, 
Barney and Lee head to the remote locale to scout out their opposition. 
Once there, they meet with local rebel Sandra and discover the true 
nature of the conflict engulfing the city. When they escape the island 
and Sandra stays behind, Ross must choose to either walk away and 
save his own life - or attempt a suicidal rescue mission that might 
just save his soul.

SCREENS: 
http://i658.photobucket.com/albums/uu309/BadGirl2k9/screens/vlcsnap-2010-08-17-03h09m57s84.png 
http://i658.photobucket.com/albums/uu309/BadGirl2k9/screens/vlcsnap-2010-08-17-03h10m09s197.png 
http://i658.photobucket.com/albums/uu309/BadGirl2k9/screens/vlcsnap-2010-08-17-03h10m35s136.png

General
Format                           : AVI
Format/Info                      : Audio Video Interleave
File size                        : 386 MiB
Duration                         : 1h 34mn
Overall bit rate                 : 572 Kbps
Writing application              : MEncoder SVN-r22963
Writing library                  : MPlayer

Video
ID                               : 0
Format                           : MPEG-4 Visual
Format profile                   : Simple@L3
Format settings, BVOP            : No
Format settings, QPel            : No
Format settings, GMC             : No warppoints
Format settings, Matrix          : Default (H.263)
Codec ID                         : XVID
Codec ID/Hint                    : XviD
Duration                         : 1h 34mn
Bit rate                         : 496 Kbps
Width                            : 512 pixels
Height                           : 208 pixels
Display aspect ratio             : 2.462
Frame rate                       : 20.000 fps
Resolution                       : 8 bits
Colorimetry                      : 4:2:0
Scan type                        : Progressive
Bits/(Pixel*Frame)               : 0.233
Stream size                      : 335 MiB (87%)
Writing library                  : XviD 1.1.2 (UTC 2006-11-01)

Audio
ID                               : 1
Format                           : MPEG Audio
Format version                   : Version 1
Format profile                   : Layer 3
Codec ID                         : 55
Codec ID/Hint                    : MP3
Duration                         : 1h 34mn
Bit rate mode                    : Constant
Bit rate                         : 64.0 Kbps
Channel(s)                       : 2 channels
Sampling rate                    : 44.1 KHz
Stream size                      : 43.2 MiB (11%)
Alignment                        : Aligned on interleaves
Interleave, duration             : 26 ms (0.52 video frame)
Interleave, preload duration     : 522 ms
Writing library                  : LAMEUUULAME3.97


GROUP NOTE: Big thanks to seedboxworld.biz for the seedbox!
